# xmcd
#
# Track frame offsets:
#  150
#  9097
#  22085
#  35558
#  56060
#  84445
#  100945
#  119989
#  133360
#  144925
#  159177
#  173302
#  193105
#  205060
#  214801
#  228260
#  243252
#  259192
#  272824
#  287607
#  306367
#  319652
#  339082
#
# Disc length: 4804 seconds
#
# Revision: 0
# Processed by: cddbd v1.5.1PL0 Copyright (c) Steve Scherf et al.
# Submitted via: AltoMP3_Maker 3.0
#
DISCID=4412c217
DTITLE=Ray Charles - The Best
DYEAR=1900
DGENRE=
TTITLE0=Hit The Road, Jack
TTITLE1=Unchain My Heart
TTITLE2=Eleanor Rigby
TTITLE3=What I'd Say
TTITLE4=I Gotta Woman
TTITLE5=Georgia On My Mind
TTITLE6=I Can't Stop Loving You
TTITLE7=Let's Go Get Stoned
TTITLE8=I Don't Need No Doctor
TTITLE9=Hallelujah I Love Her So
TTITLE10=One Mint Julep
TTITLE11=That Lucky Old Sun
TTITLE12=Don't Set Me Free
TTITLE13=Busted
TTITLE14=Crying Time
TTITLE15=Here We Go Again
TTITLE16=Cry
TTITLE17=You Are My Sunshine
TTITLE18=Born To Lose
TTITLE19=Baby, It's Cold Outside
TTITLE20=Gee, Baby, Ain't I Good To You
TTITLE21=A Song For You
TTITLE22=Someday
EXTD=
EXTT0=
EXTT1=
EXTT2=
EXTT3=
EXTT4=
EXTT5=
EXTT6=
EXTT7=
EXTT8=
EXTT9=
EXTT10=
EXTT11=
EXTT12=
EXTT13=
EXTT14=
EXTT15=
EXTT16=
EXTT17=
EXTT18=
EXTT19=
EXTT20=
EXTT21=
EXTT22=
PLAYORDER=
